<svg xmlns="http://www.w3.org/2000/svg" width="16.334" height="16.334" viewBox="0 0 16.334 16.334">
  <path d="M14.065,2.4H2.4A2.4,2.4,0,0,0,0,4.8V13.6a2.4,2.4,0,0,0,2.4,2.4H14.065a2.4,2.4,0,0,0,2.4-2.4V4.8A2.4,2.4,0,0,0,14.065,2.4ZM2.4,3.76H14.065a.4.4,0,0,1,.4.4V5.6H2V4.16A.4.4,0,0,1,2.4,3.76Zm11.6,9.6a1.2,1.2,0,1,1,1.2-1.2A1.2,1.2,0,0,1,13,13.36Zm0-1.6A.4.4,0,1,1,13.4,12,.4.4,0,0,1,13,11.76Zm-4.8-3.6a.8.8,0,0,1,.8-.8h2.4a.8.8,0,0,1,.8.8v2.4a.8.8,0,0,1-.8.8H8.4a.8.8,0,0,1-.8-.8Zm.8,2.4H10V10H9.6v.56H8.4V10H8v.56H6.8V10H6.4v.56H5.2V10H4.8v.56H3.6V10H3.2v.56H2.4V9.76H12a.4.4,0,0,0,.4-.4v-.8a.4.4,0,0,0-.4-.4Z" fill="#a5adc6"/>
</svg>
